<svg id="Artwork_-_Edit_Me" data-name="Artwork - Edit Me" xmlns="http://www.w3.org/2000/svg" viewBox="0 0 1024.3 1024"><title>Timetastic - app icon</title><rect width="1024" height="1024" style="fill:#1791ff"/><rect x="0.3" width="1024" height="1024" style="fill:#1f2b4a"/><path d="M344.67,232.31c137.54,0,254.59-3.42,350.27-9.4,11.11,9.4,16.24,26.48,16.24,52.1,0,13.66-2.56,20.49-6.83,20.49-61.52-.85-114.49-1.7-159.77-1.7Q478,555.13,446.33,774.61c-2.56,15.38-2.56,17.94-6.83,23.92-2.57.85-6,2.56-12.82,2.56-26.48,0-50.4-7.69-73.47-22.21C366,708,401.06,545.73,456.58,292.94H323.31c-10.26-6-24.78-36.72-24.78-51.24,0-6,2.57-9.39,6.84-9.39Z" style="fill:#fff"/><path d="M654.71,792.31c-15.38,16.23-31.62,24.76-48.7,24.76-23.07,0-37.59-15.38-37.59-41.86,0-17.93,6.84-35.86,19.67-52.94s28.19-25.62,46.13-25.61c27.34,0,43.57,20.5,43.56,45.27C677.78,759,670.09,776.09,654.71,792.31Z" style="fill:#c40866"/></svg>